<svg width="192" height="96" viewBox="0 0 192 96" fill="none" xmlns="http://www.w3.org/2000/svg">
<path d="M72.9197 14.8119C72.9197 14.8119 74.0902 15.3591 74.0536 15.3409C76.047 14.4107 75.8824 12.0942 75.7178 11.6382C75.6447 11.4376 75.4984 11.2187 75.2789 11.2917C75.0229 11.3647 75.0046 11.5835 75.0229 11.7842C75.2241 13.4622 74.2548 14.593 72.9197 14.8302V14.8119Z" fill="white"/>
<path d="M51.5401 16.4533C52.2717 16.6175 52.8752 16.7999 53.6616 17.2376C54.4297 15.5414 55.0515 14.9212 55.4356 14.1916C55.4539 14.1369 55.4539 14.0822 55.4356 14.0275C53.369 11.5651 51.2475 15.3225 51.5401 16.4533Z" fill="white"/>
<path d="M52.6557 65.4079C52.6923 65.8639 52.7655 66.2287 52.8935 66.5023L56.5695 66.174L56.1306 73.9805L55.9111 74.1082C54.8504 74.7648 53.6433 75.1478 52.2168 75.2573C51.9973 75.2755 51.7962 75.2937 51.595 75.2937C48.431 75.2937 46.6205 73.0503 46.2364 68.6181C46.0169 66.1558 46.1084 63.8029 46.529 61.6506C46.9496 59.4254 47.8092 57.5102 49.0711 55.9416C50.4062 54.2819 52.0522 53.3881 54.1371 53.2057C54.3566 53.1875 54.576 53.1692 54.7772 53.1692C56.4598 53.1692 57.996 53.7529 59.3677 54.9202C60.9771 54.3001 61.8915 52.9139 61.9647 50.9623C60.2455 49.4849 57.7034 48.6094 55.1064 48.6094C54.7772 48.6094 54.448 48.6094 54.1188 48.6459H53.9908C50.0039 49.0106 46.5656 50.8711 44.0417 54.0812C40.9327 58.0027 39.5244 63.6205 40.1463 69.5118C40.7498 76.3699 44.2246 79.9995 50.1867 79.9995C50.644 79.9995 51.1195 79.9813 51.6133 79.9266C53.5153 79.7624 55.3259 79.2882 57.1547 78.5039C58.9836 77.7014 60.3736 76.8623 61.3977 75.8957L62.1841 61.7418L53.1861 62.5261C52.7472 63.3651 52.5643 64.2953 52.674 65.3897L52.6557 65.4079Z" fill="white"/>
<path d="M73.7611 12.549C73.9074 11.9471 73.7428 11.2723 73.6696 11.1628C73.5965 11.0169 73.4867 10.9439 73.3404 11.0169C73.1941 11.0716 73.2307 11.2905 73.2307 11.2905C73.3221 12.3484 72.6272 13.2239 72.6272 13.2239C72.1517 13.8258 71.5115 14.1176 71.0543 14.2635C70.9812 14.2635 72.2431 14.5554 72.2431 14.5554C72.9929 14.1541 73.5782 13.2968 73.7611 12.5673V12.549Z" fill="white"/>
<path d="M48.1019 19.3535C48.1019 19.3535 48.3946 19.2623 48.486 19.2441C50.5343 18.6969 52.7473 19.2806 52.7838 19.2806C56.6976 17.2925 45.2855 15.049 48.0837 19.3718H48.1019V19.3535Z" fill="white"/>
<path d="M48.1751 22.4008C48.2849 22.3461 48.3946 22.2914 48.5226 22.2549C50.3332 21.653 52.9119 22.3644 52.9851 22.3826C57.5207 19.0083 44.1882 18.5158 48.1751 22.3826V22.4008Z" fill="white"/>
<path d="M89.8551 33.5608C90.2208 33.4331 90.8061 33.4149 91.6108 33.5973C91.6474 33.5243 92.4886 31.9375 91.117 30.8978C90.8427 30.6789 90.4037 30.533 89.727 30.7154C89.6173 30.7519 89.3978 30.8249 89.4893 31.1714C89.4893 31.1714 89.7819 32.4299 89.8368 33.579L89.8551 33.5608Z" fill="white"/>
<path d="M88.9041 37.358C88.9041 37.358 91.2085 37.6681 92.1595 38.58C92.2143 38.6165 92.3241 38.7624 92.3424 38.7807C96.3659 37.3033 86.6363 33.6918 88.9041 37.358Z" fill="white"/>
<path d="M74.3462 15.506C74.3462 15.506 75.7727 16.3268 75.7361 16.3085C75.7361 16.3085 77.437 16.3268 77.9491 13.7003C77.9856 13.4996 77.9491 13.1896 77.6382 13.2078C77.437 13.2078 77.3455 13.4267 77.2907 13.5908C77.0346 14.4116 76.6323 14.8858 76.1568 15.1959C76.0288 15.2689 75.9007 15.3418 75.7544 15.3783C75.4069 15.4877 74.6388 15.4877 74.3462 15.4877V15.506Z" fill="white"/>
<path d="M89.9465 35.2755C89.9831 35.2755 91.7022 35.5856 93.0556 36.4975C93.0556 36.4975 93.275 36.6617 93.2933 36.6799C96.5487 34.6006 87.8433 32.649 89.9282 35.2573L89.9465 35.2755Z" fill="white"/>
<path d="M79.4854 31.7369C79.7414 31.7734 79.9792 31.6093 80.0158 31.3539C80.0524 31.0986 79.8695 30.8614 79.6317 30.825C79.3757 30.7885 79.1379 30.9709 79.1013 31.2262C79.0648 31.4816 79.2477 31.7187 79.5037 31.7552L79.4854 31.7369Z" fill="white"/>
<path d="M79.6865 34.1074C80.2717 34.1986 80.8204 33.7791 80.9118 33.1955C81.0033 32.6118 80.5826 32.0646 79.9974 31.9734C79.4122 31.8822 78.8635 32.3017 78.7903 32.8854C78.6989 33.469 79.1195 34.0162 79.7048 34.1074H79.6865Z" fill="white"/>
<path d="M84.4049 38.1597C84.4049 28.4562 80.3265 21.5617 79.1926 28.967C81.3324 26.3769 82.2834 32.9067 81.8994 36.208C83.6185 37.3571 84.4049 38.1597 84.4049 38.1597Z" fill="white"/>
<path d="M65.0006 50.3964C64.8909 49.2838 64.7994 47.7882 64.7994 47.7699C64.7994 47.7335 64.836 47.697 64.8726 47.697C64.9092 47.697 64.9457 47.7335 64.9457 47.7699C64.9457 47.8247 65.1286 52.5669 67.5976 53.0411C70.725 53.6248 72.8465 51.3631 73.0659 51.1078C73.0842 51.0713 73.1391 51.0713 73.1757 51.1078C73.2122 51.126 73.2122 51.1807 73.2122 51.2172C73.1574 51.3266 72.9196 51.7279 72.9013 51.7461L72.3527 52.348C72.3892 52.3298 72.4258 52.3116 72.4624 52.2933C74.0535 51.3814 75.6446 51.3996 75.6446 51.3996C76.9614 50.7977 79.8327 49.2473 80.674 48.2806C81.9542 46.8215 82.8321 45.2711 83.4356 43.6296C83.4722 43.5201 83.5088 43.4289 83.5453 43.3195C84.1306 41.3861 84.3135 39.7446 84.3501 39.1609C84.3501 39.1062 84.3501 39.0697 84.3501 39.015C84.3501 38.9603 84.3501 38.9238 84.3501 38.9238L84.0209 38.6684C83.4539 38.2307 82.2834 37.3552 81.0947 36.4979C79.595 35.4218 78.2233 34.674 78.1685 34.6375L78.0587 34.5828V34.5281C78.1685 33.9626 78.2233 33.1236 78.2965 32.1387C78.4794 29.5122 78.6988 26.2473 79.9608 25.3718C80.29 25.1347 80.674 25.0983 81.1129 25.2259C81.369 25.3171 81.4604 25.3901 81.5519 25.4813C81.5885 25.5178 81.625 25.5542 81.6433 25.5907C81.1495 24.5693 80.674 23.7303 80.3265 23.1284C80.2168 23.0919 79.9791 23.0554 79.7596 23.3108C79.7596 23.3108 79.4853 23.6573 79.3938 23.8944C79.3572 23.9674 79.2841 24.0951 79.1378 24.0951C79.0098 24.0768 78.9183 24.0039 78.8817 23.8215C78.772 23.2196 79.1378 22.4718 79.7779 22.2164C76.7602 17.5106 72.7916 14.8477 68.7498 14.8477C66.5734 14.8477 64.3788 15.632 62.3122 17.2735C59.8066 19.061 59.2762 23.402 59.2762 23.402C59.0202 24.7699 58.7825 26.1014 58.7825 26.1014C58.6361 26.7398 58.3618 27.3417 58.0509 27.8889C58.6361 28.3449 59.4408 28.7097 60.2455 29.038L60.0809 29.1839C59.2762 29.0015 58.5264 28.6732 57.8314 28.2354C57.8314 28.2354 57.7949 28.2172 57.7766 28.199C57.6851 28.1442 57.5754 28.0895 57.5022 28.0166C57.4291 27.9436 57.3376 27.8889 57.2462 27.8159C57.1182 27.7247 57.0084 27.6335 56.8987 27.5241C56.8621 27.4876 56.8256 27.4694 56.789 27.4329C55.5454 26.3385 54.6126 24.8611 54.1737 23.329C54.1737 23.329 54.1737 23.402 54.2103 23.5297C54.7589 26.1014 51.1744 25.7002 49.8393 25.4083C53.7896 25.5907 55.3442 23.0189 50.6806 22.7454C43.804 22.5265 49.821 28.0166 54.064 25.6454C53.3141 26.2291 53.497 28.4543 54.0274 29.4575C54.1737 29.7493 54.3566 30.0229 54.5212 30.2783C54.7224 30.5701 54.9052 30.8255 55.1064 31.0808C55.6185 31.7009 56.1123 32.1752 56.4049 32.4305L56.3318 32.4852C56.3318 32.4852 55.5819 32.1934 54.7406 31.4274C50.3879 35.6772 49.8941 41.4956 53.9359 46.2561C57.9595 46.4385 59.6054 46.3837 62.7145 48.4083C63.3546 48.8278 64.964 50.4511 64.964 50.4511L65.0006 50.3964ZM78.9183 36.2608C79.1012 36.5162 79.5584 37.3917 79.0829 37.4829C78.7171 37.5558 78.8086 36.8992 78.0587 36.3155C77.2906 35.7136 76.7785 35.6224 75.4983 35.586C75.3154 35.586 75.1325 35.4765 75.1691 35.2576C75.2423 34.4733 77.8027 34.7287 78.9183 36.2791V36.2608ZM68.8229 17.1823C68.8229 17.1823 68.9875 16.1974 69.902 15.942C69.9386 15.942 70.9444 15.6684 71.6394 16.1062C71.6577 16.1062 72.3161 16.5074 72.4807 16.6534C72.5904 16.7446 72.6453 16.8722 72.6453 16.9999C72.6453 17.0729 72.627 17.1458 72.5721 17.2006C72.4441 17.3282 72.2612 17.2917 72.1515 17.237C71.548 16.9452 70.9993 16.854 70.6152 16.9634C69.9568 17.1458 69.4082 17.4924 69.2985 17.5836C69.2253 17.6383 69.1521 17.6565 69.079 17.6565C68.9875 17.6565 68.8961 17.6201 68.8412 17.5653C68.7498 17.4924 68.7864 17.2735 68.8047 17.1823H68.8229ZM60.6479 36.7898C60.6479 36.7898 60.6479 36.735 60.6662 36.735C61.2331 36.8627 63.1169 37.1728 65.1103 36.6256C65.1103 36.6256 67.1587 36.1514 68.0365 34.5281C68.0365 34.5281 70.1397 29.7858 63.4461 28.655C63.4095 28.655 63.4095 28.6185 63.4461 28.6002C63.7936 28.5455 64.9275 28.4908 66.0796 28.7644C66.0796 28.7644 65.9516 28.0895 65.9882 27.1411C66.0614 25.2442 66.354 22.5265 67.8354 20.4837C68.384 19.7176 69.6459 18.3861 71.5663 18.8786C72.4441 19.0792 74.3461 20.0094 75.7361 23.3837C75.7361 23.3837 77.8393 27.9801 77.126 34.1268C77.126 34.1268 73.2122 32.2481 69.0607 31.6645C69.0607 31.6645 69.4813 33.6708 68.5852 35.1847C69.4082 36.0419 71.0359 37.4464 73.9986 39.1062C73.9986 39.1062 76.5042 40.6748 79.6864 40.9301C82.0457 41.1125 82.4297 39.8722 82.9418 40.2188C83.4539 40.5653 81.6067 41.7327 80.1254 43.283C79.1012 44.3409 77.1443 46.3473 76.3213 47.2045C75.4435 48.1165 74.2547 49.3932 72.5173 50.5059C71.7857 50.9801 70.6335 51.7644 69.0241 51.126C69.0241 51.126 67.2867 50.5241 67.6708 48.2259C67.6708 48.2259 67.9634 46.0007 68.3657 44.195C68.3657 44.195 69.4448 39.5439 68.2743 36.3885C68.2743 36.3885 68.1828 36.1514 68.0365 35.8596C67.3964 36.4797 66.1894 37.3369 64.3605 37.5193C64.3605 37.5193 62.2207 37.72 60.6662 36.808L60.6479 36.7898Z" fill="white"/>
<path d="M117.032 51.0339C115.99 51.1251 115.185 51.3439 114.581 51.727L113.85 63.5097V63.5462C112.972 64.9324 112.058 65.6619 111.015 65.7531C110.924 65.7531 110.85 65.7531 110.777 65.7531C110.284 65.7531 109.918 65.6072 109.643 65.3154C109.296 64.9324 109.15 64.294 109.223 63.4367L109.918 52.11C109.479 51.9276 108.93 51.8182 108.29 51.8182C108.089 51.8182 107.869 51.8182 107.632 51.8546C106.626 51.9458 105.821 52.1647 105.144 52.5477L104.431 64.7135C104.321 66.4098 104.687 67.7595 105.51 68.635C106.169 69.3281 107.12 69.7111 108.253 69.7111C108.418 69.7111 108.583 69.7111 108.747 69.6929C110.485 69.5469 112.368 68.3796 113.539 66.7563L113.74 66.4827L114.124 68.1425C114.581 68.3614 115.093 68.4891 115.679 68.4891C115.825 68.4891 115.953 68.4891 116.099 68.4708C116.904 68.3979 117.672 68.1607 118.294 67.7777L119.318 51.3075C118.879 51.1251 118.331 51.0156 117.69 51.0156C117.489 51.0156 117.27 51.0156 117.032 51.0521V51.0339Z" fill="white"/>
<path d="M104.943 46.3107C104.906 45.9824 104.815 45.6541 104.65 45.3075C103.937 45.0522 103.114 44.9062 102.218 44.9062C101.925 44.9062 101.615 44.9063 101.304 44.9427C99.493 45.1069 97.9934 45.7453 96.8595 46.8579C95.6707 48.0252 95.0306 49.4114 94.9209 51.1077L94.866 52.202C94.866 52.4939 94.6831 52.731 94.4454 52.7857L92.525 52.9499C92.1593 53.5335 92.013 54.7191 92.0678 55.394C92.1044 55.7952 92.1958 56.1418 92.3422 56.4518L94.6282 56.2512L93.6041 73.3781C94.043 73.5787 94.5917 73.6882 95.2683 73.6882C95.4695 73.6882 95.6707 73.6882 95.8902 73.6517C96.896 73.5605 97.7373 73.3234 98.3774 72.9403L99.4016 55.9047L102.492 55.6311C102.895 54.7921 103.059 53.9713 103.004 53.187C102.968 52.731 102.876 52.3844 102.748 52.1473L99.2553 52.3844L99.3467 51.1624C99.493 49.612 100.298 48.773 101.761 48.6453C101.944 48.6453 102.108 48.6271 102.291 48.6271C102.767 48.6271 103.242 48.6818 103.718 48.7913C104.65 48.1529 105.053 47.3321 104.961 46.2925L104.943 46.3107Z" fill="white"/>
<path d="M92.3239 39.3799C90.5133 37.0817 84.7158 37.6654 90.2756 40.3284C89.3794 40.1095 86.5264 39.5441 87.6786 37.7566C87.7334 37.6836 87.7517 37.6289 87.7517 37.6289C87.0385 38.5044 86.0875 39.2157 85.0267 39.6352C84.8621 41.1674 84.4781 42.4624 84.2952 43.0825C86.0143 42.4077 87.6969 40.146 87.1116 39.1793C87.77 40.456 92.1959 41.6781 92.3239 39.3799Z" fill="white"/>
<path d="M152 63.2377C151.982 63.0005 151.927 62.7999 151.817 62.581C151.579 62.5446 151.378 62.4351 151.25 62.271C151.031 62.0156 150.958 61.6326 151.012 61.1219L151.707 49.6128C149.933 48.7555 147.592 48.2266 145.562 48.2266C145.251 48.2266 144.959 48.2266 144.666 48.263C141.868 48.5002 139.637 49.7769 138.064 52.0569C136.455 54.355 135.778 57.2369 136.071 60.6294C136.4 64.4597 138.21 66.5572 141.173 66.5572C141.374 66.5572 141.557 66.5573 141.758 66.539C143.88 66.3566 145.855 65.0799 147.007 63.1282L147.245 62.727L147.282 63.2012C147.428 64.8063 148.635 65.773 150.537 65.773C150.665 65.773 150.793 65.773 150.921 65.773C151.634 65.2075 152.055 64.2044 151.963 63.2559L152 63.2377ZM146.788 60.0822V60.1187C145.928 61.6508 144.867 62.4351 143.551 62.5628C143.459 62.5628 143.386 62.5628 143.295 62.5628C142.38 62.5628 141.228 62.0703 141.027 59.7174C140.826 57.4557 141.063 55.4676 141.685 54.0085C142.344 52.5128 143.368 51.6556 144.648 51.5461C144.813 51.5461 144.977 51.5279 145.16 51.5279C145.8 51.5279 146.44 51.6373 147.117 51.838L147.227 51.8745L146.788 60.1005V60.0822Z" fill="white"/>
<path d="M90.7879 57.4556C90.5501 54.7562 88.264 53.0234 84.9538 53.0234C84.6794 53.0234 84.3868 53.0234 84.0942 53.0599C81.168 53.3153 78.9551 54.5191 77.3274 56.7261C75.718 58.9513 75.0596 61.7784 75.3522 65.1345C75.5351 67.2685 76.3398 68.9648 77.7114 70.1503C78.9185 71.19 80.3999 71.7189 82.119 71.7189C82.3751 71.7189 82.6494 71.7189 82.9054 71.6824C85.1915 71.4818 87.6422 70.5151 89.1785 69.2019C89.4162 68.2717 89.3979 67.5786 89.087 67.1408C88.8493 66.7943 88.4286 66.5754 87.8434 66.5024C86.6546 67.2867 85.3744 67.7609 84.0393 67.8704C83.8747 67.8704 83.6918 67.8886 83.5272 67.8886C81.7532 67.8886 80.6193 67.0131 80.1804 65.2621L80.1438 65.098H80.3084C87.4045 64.3319 91.1171 61.6325 90.7513 57.4556H90.7879ZM80.1255 62.2709H79.9427V62.1067C80.089 58.8054 81.5338 56.7078 83.8199 56.5072C83.9113 56.5072 84.021 56.5072 84.1125 56.5072C85.3195 56.5072 86.1242 57.2003 86.234 58.3311C86.4169 60.4834 84.3685 61.8149 80.1073 62.2891L80.1255 62.2709Z" fill="white"/>
<path d="M129.066 56.9443C127.896 56.5977 127.091 56.3242 126.762 56.1053C126.396 55.8682 126.195 55.5034 126.14 54.9927C126.103 54.5002 126.304 54.0807 126.762 53.7524C127.182 53.4423 127.804 53.2599 128.554 53.187C128.792 53.1687 129.011 53.1505 129.231 53.1505C130.383 53.1505 131.407 53.4241 132.285 53.9713C133.474 53.3694 134.077 52.3479 134.114 50.8888C132.888 50.0863 130.877 49.5391 129.103 49.5391C128.865 49.5391 128.645 49.5391 128.426 49.5755C126.14 49.7762 124.348 50.4875 123.067 51.6731C121.769 52.8586 121.202 54.336 121.348 56.087C121.549 58.3852 122.83 59.5708 126.085 60.4645C128.517 61.1394 129.286 61.5224 129.377 62.5985C129.432 63.1822 129.212 63.6564 128.737 64.003C128.28 64.3313 127.566 64.5319 126.615 64.6231C126.396 64.6414 126.176 64.6596 125.957 64.6596C124.604 64.6596 123.378 64.2948 122.244 63.5288C121.074 64.1671 120.489 65.1703 120.416 66.6295C121.129 67.2131 122.062 67.6144 123.323 67.9245C124.256 68.1433 125.152 68.2528 126.067 68.2528C126.396 68.2528 126.725 68.2528 127.054 68.2163C129.395 68.0157 131.242 67.2861 132.559 66.064C133.894 64.842 134.461 63.3646 134.297 61.5589C134.114 59.4978 133.218 58.1481 129.011 56.9443H129.066Z" fill="white"/>
<path d="M70.396 49.9613C71.2372 50.3991 72.17 50.0525 72.426 49.8701C72.426 49.8701 73.0478 49.4689 73.5416 49.0494C74.1634 48.5022 74.2732 48.2833 74.2732 48.2833C73.8708 46.0581 72.0602 46.0946 72.0602 46.0946C72.3163 46.8241 72.298 47.1707 72.2797 47.5537C72.2797 47.6632 72.2248 47.9185 71.9322 47.9003C71.6213 47.882 71.6579 47.5902 71.6579 47.5902C71.8042 45.8392 70.0485 44.526 69.6461 44.2889C69.2438 44.07 68.9146 44.1794 68.8231 44.526C68.7317 44.8543 68.4756 46.5506 68.4756 46.5506C68.2196 48.3563 69.3901 49.4324 70.4142 49.9613H70.396Z" fill="white"/>
<path d="M69.8105 23.094C72.5538 26.0306 71.6394 31.5389 71.6394 31.5389C74.1998 32.159 76.6322 33.3446 76.6322 33.3446C76.6871 32.7062 76.7785 32.232 76.7785 30.9552C76.7785 29.2407 76.4127 27.1432 76.047 25.6658C75.2606 22.5651 73.578 20.6864 73.578 20.6864C72.5538 19.4461 71.5662 19.1908 70.5604 19.3002C68.7132 19.4826 67.8353 21.799 67.5793 22.9663C67.5793 23.0211 67.5427 23.2217 67.5427 23.2217C68.6035 21.6166 69.8105 23.1122 69.8105 23.1122V23.094Z" fill="white"/>
<path d="M69.4265 41.3153C71.9503 43.9965 77.4369 44.1789 77.4369 44.1789C78.3696 42.1725 78.9549 41.4977 78.9549 41.4977L79.0829 41.3518C79.0829 41.3518 78.7537 41.3882 78.6622 41.3882C77.1443 41.3882 74.785 40.2574 74.785 40.2574C71.5845 38.9077 68.9692 36.3906 68.9692 36.3906C69.6276 38.0504 69.4265 41.3335 69.4265 41.3335V41.3153Z" fill="white"/>
<path d="M75.6265 55.1961C75.5533 54.4483 75.3704 54.12 75.2241 53.974C74.9864 53.8828 74.712 53.8281 74.4011 53.8281C74.3097 53.8281 74.2183 53.8281 74.1268 53.8281C72.3345 53.9923 70.9263 55.1414 69.9387 57.2572L69.7192 57.7131L69.3535 55.3055C68.9511 55.1049 68.4756 54.9955 67.8904 54.9955C67.7258 54.9955 67.5612 54.9955 67.3783 55.0137C66.5736 55.0866 65.842 55.3055 65.1836 55.6703L64.196 72.1223C64.635 72.323 65.1836 72.4324 65.842 72.4324C66.0432 72.4324 66.2444 72.4324 66.4638 72.3959C67.4514 72.3047 68.2744 72.0676 68.9145 71.6846L69.4998 62.0541C70.1764 60.1207 71.5481 58.9352 73.249 58.771C73.377 58.771 73.4867 58.771 73.6147 58.771C73.8342 58.771 74.0171 58.771 74.1817 58.8257C75.1693 58.2786 75.7362 56.8194 75.5899 55.1778L75.6265 55.1961Z" fill="white"/>
<path d="M69.8289 28.4902C69.9203 27.8336 69.4631 27.2317 68.823 27.1405C68.1646 27.0493 67.5611 27.5053 67.4696 28.1619C67.3782 28.8185 67.8354 29.4204 68.4938 29.5116C69.1339 29.6028 69.7374 29.1469 69.8289 28.5085V28.4902Z" fill="white"/>
<path d="M67.8536 25.9199C67.8171 26.23 68.0182 26.5036 68.3292 26.54C68.6401 26.5765 68.9144 26.3759 68.951 26.0658C68.9875 25.774 68.7864 25.4822 68.4755 25.4457C68.1646 25.4092 67.8902 25.6098 67.8536 25.9199Z" fill="white"/>
</svg>
