<svg width="192" height="96" viewBox="0 0 192 96" fill="none" xmlns="http://www.w3.org/2000/svg">
<path d="M48.6459 45.5831H50.2711C52.2213 45.5831 52.4815 44.3474 52.4815 42.8527V34.7909C52.4815 33.1008 52.2213 31.9308 50.2711 31.9308H48.6459V45.5831ZM48.6459 53.4481V72.8203H39.9999V24.4549H52.2865C59.6319 24.4549 61.1926 28.0959 61.1926 34.0114V43.6977C61.1926 49.6133 58.7869 53.4481 52.7416 53.4481H48.6459Z" fill="white"/>
<path d="M73.2821 44.1521H74.9722C76.6629 44.1521 77.3779 43.5024 77.3779 41.2264V34.6612C77.3779 32.5805 76.9876 31.9308 75.2323 31.9308H73.2821V44.1521ZM73.2821 72.8203H64.6362V24.4549H78.2878C83.5532 24.4549 86.2191 27.3806 86.2191 32.5156V40.2517C86.2191 44.1521 84.0087 46.1023 82.3832 46.7528C83.8134 47.2731 86.089 48.8327 86.089 52.473V68.9199C86.089 71.0005 86.4786 71.9104 86.804 72.4953V72.8203H78.1577C77.7678 72.3 77.3779 71.2607 77.3779 69.1152V55.0085C77.3779 52.798 76.8575 52.1483 75.1022 52.1483H73.2821V72.8203Z" fill="white"/>
<path d="M89.7918 72.8203V24.4549H98.4377V72.8203H89.7918Z" fill="white"/>
<path d="M102.337 24.4549H112.998L116.314 48.8976L119.629 24.4549H129.575V72.8203H121.774V44.2177L117.484 72.8203H114.234L109.878 44.2177V72.8203H102.337V24.4549Z" fill="white"/>
<path d="M151.545 24.4549V32.9711H142.119V43.5024H149.529V52.2132H142.119V64.1095H152V72.8203H133.473V24.4549H151.545Z" fill="white"/>
</svg>
