<svg width="192" height="96" viewBox="0 0 192 96" fill="none" xmlns="http://www.w3.org/2000/svg">
<path fill-rule="evenodd" clip-rule="evenodd" d="M122.804 32H128.491V63.7312H122.804V32ZM168.861 45.3685V40.4444H162.98V34.0245H157.293V57.4298C157.293 59.5804 157.834 61.2193 158.901 62.3012C159.967 63.384 161.629 63.9329 163.84 63.9329H168.861V59.0089H165.187C164.388 59.0089 163.815 58.8332 163.483 58.4863C163.178 58.1688 162.98 57.3668 162.98 56.4433V45.3685H168.861ZM84.1717 57.555L90.0521 40.4438H96.027L87.5381 63.7315H80.8054L72.3164 40.4438H78.2913L84.1717 57.555ZM148.023 52.1099C148.023 53.5842 147.799 54.8668 147.359 55.922C146.922 56.9715 146.296 57.7761 145.498 58.3128C144.7 58.8495 143.719 59.1217 142.582 59.1217C140.956 59.1217 139.729 58.5873 138.936 57.5339C138.134 56.4693 137.727 54.8558 137.727 52.7385V40.4444H132.04V53.3671C132.04 55.3793 132.291 57.086 132.788 58.4392C133.285 59.7965 133.968 60.9006 134.817 61.7202C135.666 62.5389 136.657 63.1302 137.763 63.4783C138.863 63.8246 140.047 64 141.281 64C143.059 64 144.531 63.6775 145.654 63.0414C146.678 62.4595 147.537 61.7792 148.209 61.0163L148.718 63.7311H153.71V40.4444H148.023V52.1099ZM114.11 41.6725C112.318 40.6787 110.189 40.1753 107.785 40.1753C105.41 40.1753 103.29 40.6787 101.483 41.6721C99.6735 42.6681 98.2519 44.0746 97.2573 45.8525C96.2642 47.6288 95.7607 49.7342 95.7607 52.1099C95.7607 54.4565 96.2642 56.5472 97.2573 58.3235C98.2513 60.1008 99.6732 61.507 101.483 62.5028C103.29 63.4963 105.41 63.9997 107.785 63.9997C110.189 63.9997 112.318 63.4963 114.11 62.5025C115.904 61.5072 117.318 60.1011 118.313 58.3235C119.306 56.5462 119.81 54.4555 119.81 52.1099C119.81 49.7351 119.306 47.6297 118.313 45.8524C117.318 44.0743 115.904 42.6677 114.11 41.6725ZM111.105 58.3115C110.189 58.9081 109.072 59.2108 107.785 59.2108C106.528 59.2108 105.418 58.9082 104.487 58.3113C103.554 57.7137 102.822 56.8703 102.311 55.8041C101.798 54.7369 101.538 53.4942 101.538 52.1099C101.538 50.6971 101.798 49.4472 102.311 48.3945C102.821 47.3427 103.554 46.499 104.488 45.8864C105.419 45.2744 106.529 44.9642 107.785 44.9642C109.071 44.9642 110.188 45.2744 111.104 45.8857C112.023 46.4987 112.749 47.3427 113.26 48.3948C113.773 49.45 114.033 50.7 114.033 52.11C114.033 53.4911 113.773 54.7342 113.26 55.8041C112.749 56.8705 112.024 57.714 111.105 58.3115ZM29.9106 39.8312H24V63.7315H29.9106V39.8312ZM48.4458 41.1979C48.4458 36.1264 44.316 32.0003 39.2395 32.0003H24V37.1044H38.5149C40.8123 37.1044 42.7153 38.9093 42.7574 41.1276C42.7784 42.2383 42.3615 43.2866 41.5836 44.0793C40.8054 44.8722 39.7656 45.3092 38.6558 45.3092H33.0015C32.8007 45.3092 32.6373 45.4723 32.6373 45.6731V50.2094C32.6373 50.2866 32.6612 50.3603 32.706 50.4224L42.2994 63.7316H49.3219L39.7062 50.386C44.5487 50.1429 48.4458 46.0742 48.4458 41.1979ZM66.6203 41.5369C64.9177 40.6333 62.8961 40.1753 60.6116 40.1753C58.3242 40.1753 56.2791 40.6791 54.5329 41.6731C52.7838 42.6681 51.4078 44.0749 50.4432 45.8537C49.4796 47.6285 48.9912 49.7486 48.9912 52.1554C48.9912 54.5011 49.4871 56.5911 50.4658 58.3677C51.4466 60.1484 52.8613 61.5474 54.6699 62.5257C56.4751 63.5041 58.6405 64 61.1053 64C63.0607 64 64.8167 63.6337 66.3245 62.9106C67.8326 62.1857 69.0638 61.1986 69.9841 59.9765C70.8583 58.815 71.4481 57.5013 71.7366 56.0723L71.7677 55.9198H66.1118L66.0851 56.0114C65.7737 57.0773 65.1695 57.9195 64.2887 58.5152C63.3433 59.1557 62.1821 59.4806 60.8368 59.4806C59.6966 59.4806 58.6668 59.2363 57.7763 58.7545C56.8901 58.2755 56.1972 57.5905 55.7173 56.7178C55.2355 55.8421 54.9613 54.7884 54.9027 53.5924V53.4054H71.9869L72.006 53.301C72.0656 52.9732 72.1039 52.6354 72.1205 52.2957C72.1346 51.9647 72.1428 51.6341 72.1428 51.3004C72.1123 49.0441 71.608 47.0595 70.6441 45.4011C69.6764 43.7408 68.3226 42.4406 66.6203 41.5369ZM64.5479 45.9224C65.5196 46.7402 66.1241 47.9023 66.3458 49.3788H55.0991C55.2276 48.4208 55.5457 47.5911 56.0454 46.9105C56.5696 46.1966 57.2411 45.6357 58.0416 45.2433C58.843 44.8497 59.7229 44.6499 60.6564 44.6499C62.2345 44.6498 63.5438 45.078 64.5479 45.9224Z" fill="white"/>
</svg>
