<svg width="192" height="96" viewBox="0 0 192 96" fill="none" xmlns="http://www.w3.org/2000/svg">
<path d="M93.0624 37.11C98.2073 37.8095 99.3263 44.3759 104.586 44.3663C107.312 44.3616 108.93 42.6646 108.93 40.2713C108.93 35.072 102.505 31.4375 95.2956 31.4375C85.9122 31.4375 79.905 38.4772 79.905 47.7252C79.905 56.7423 86.2373 64.9786 95.8046 64.9786C104.863 64.9786 108.837 59.1355 108.837 53.2463C108.837 51.6816 107.035 51.3136 106.111 52.3716C104.772 53.8901 102.968 56.5128 98.9932 56.5128C93.9561 56.5128 88.9809 50.853 89.0565 41.9285C89.0928 37.6996 91.6364 36.9156 93.0624 37.11Z" fill="white"/>
<path d="M143.379 31.4492C133.581 31.4492 127.063 38.304 127.063 48.4715C127.063 58.6852 135.012 65.0349 143.379 65.0349C152.437 65.0349 159.785 58.6852 159.785 48.4715C159.787 38.2578 151.976 31.4492 143.379 31.4492ZM145.973 60.4125C141.491 60.4125 136.619 48.7615 136.619 41.0526C136.619 37.6747 137.794 36.0717 140.144 36.0717C144.669 36.0717 149.584 49.0212 149.584 55.5622C149.584 58.8542 148.409 60.4125 145.973 60.4125Z" fill="white"/>
<path d="M61.555 31.8516H53.8829C53.1898 31.8516 52.7272 32.2196 52.7272 32.8172V33.0004C52.7272 33.4179 52.9865 33.7732 53.3291 34.1222L53.3307 34.1238C53.3708 34.1652 53.4124 34.205 53.4541 34.2464C53.6845 34.5014 54.1263 35.1324 53.8046 35.9832L53.8061 35.9848L47.6804 49.1177L42.0507 37.3711C42.022 37.2978 41.9979 37.2277 41.9771 37.1576L41.7594 36.6062H41.7642L41.5209 35.9864L41.5226 35.9848C41.2008 35.134 41.6426 34.503 41.8731 34.248C41.9147 34.2066 41.9564 34.1668 41.9963 34.1253L41.998 34.1238C42.3405 33.7748 42.5998 33.4195 42.5998 33.002V32.8188C42.5998 32.2212 42.1372 31.8532 41.4441 31.8532H29.1557C28.4626 31.8532 28 32.2212 28 32.8188V33.002C28 33.3669 28.1104 33.668 28.2913 33.9564L42.4205 62.2218C42.4653 62.3158 42.5102 62.405 42.5566 62.4926L42.5966 62.5739C42.5966 62.5739 42.595 62.5691 42.595 62.566C43.3073 63.8773 44.2485 64.5179 45.7931 64.5179C47.642 64.5179 48.7512 63.7355 49.4907 61.9414L62.4739 33.8353C62.6211 33.59 62.7092 33.327 62.7092 33.002V32.8188C62.7107 32.2196 62.2481 31.8516 61.555 31.8516Z" fill="white"/>
<path d="M75.9452 31.8516H66.4433C65.7502 31.8516 65.2876 32.2196 65.2876 32.8172V33.0004C65.2876 33.4179 65.5469 33.7732 65.8895 34.1222L65.8911 34.1238C65.9312 34.1652 65.9727 34.205 66.0143 34.2464C66.1905 34.4408 66.4865 34.8567 66.4738 35.4208V60.9455C66.4865 61.5095 66.1905 61.9254 66.0143 62.1214C65.9727 62.1628 65.9312 62.2026 65.8911 62.2441L65.8895 62.2457C65.5469 62.5946 65.2876 62.95 65.2876 63.3674V63.5507C65.2876 64.1482 65.7502 64.5162 66.4433 64.5162H70.0208V64.5131H72.3642V64.5162H75.9418C76.635 64.5162 77.0976 64.1482 77.0976 63.5507V63.3674C77.0976 62.95 76.8382 62.5946 76.4956 62.2457L76.4938 62.2441C76.4541 62.2026 76.4124 62.1628 76.3709 62.1214C76.1946 61.927 75.9003 61.5112 75.9111 60.9486V35.4208C75.9003 34.8583 76.1946 34.4424 76.3709 34.248C76.4124 34.2066 76.4541 34.1668 76.4938 34.1253L76.4956 34.1238C76.8382 33.7748 77.0976 33.4195 77.0976 33.002V32.8188C77.1005 32.2196 76.6379 31.8516 75.9452 31.8516Z" fill="white"/>
<path d="M122.988 31.8516H113.487C112.794 31.8516 112.332 32.2196 112.332 32.8172V33.0004C112.332 33.4179 112.591 33.7732 112.934 34.1222L112.935 34.1238C112.975 34.1652 113.017 34.205 113.058 34.2464C113.235 34.4408 113.53 34.8583 113.518 35.4224V60.947C113.53 61.5112 113.235 61.9285 113.058 62.1229C113.017 62.1644 112.975 62.2043 112.935 62.2457L112.934 62.2472C112.591 62.5962 112.332 62.9515 112.332 63.369V63.5522C112.332 64.1498 112.794 64.5179 113.487 64.5179H117.065V64.5146H119.408V64.5179H122.986C123.679 64.5179 124.141 64.1498 124.141 63.5522V63.369C124.141 62.9515 123.882 62.5962 123.539 62.2472L123.538 62.2457C123.498 62.2043 123.456 62.1644 123.415 62.1229C123.239 61.9285 122.944 61.5127 122.955 60.9503V35.4208C122.944 34.8583 123.239 34.4424 123.415 34.248C123.456 34.2066 123.498 34.1668 123.538 34.1253L123.539 34.1238C123.882 33.7748 124.141 33.4195 124.141 33.002V32.8188C124.143 32.2196 123.681 31.8516 122.988 31.8516Z" fill="white"/>
<path d="M155.613 32.4244H155.668C155.822 32.4244 155.861 32.0595 156.074 32.0595H156.161V33.5493C156.161 33.6943 156.032 33.7373 156.032 33.8297V33.8409C156.032 33.8791 156.059 33.903 156.102 33.903H156.824C156.869 33.903 156.898 33.8791 156.898 33.8409V33.8297C156.898 33.7389 156.765 33.6943 156.765 33.5493V32.0595H156.852C157.066 32.0595 157.104 32.4244 157.258 32.4244H157.314C157.37 32.4244 157.406 32.3893 157.397 32.3335L157.337 31.9097C157.329 31.8396 157.3 31.8125 157.229 31.8125H155.696C155.625 31.8125 155.595 31.8396 155.586 31.9097L155.528 32.3335C155.522 32.3877 155.556 32.4244 155.613 32.4244Z" fill="white"/>
<path d="M159.88 33.5509L159.616 32.1662C159.589 32.0212 159.737 31.9782 159.737 31.8858V31.8746C159.737 31.8364 159.709 31.8125 159.664 31.8125H159.208C159.124 31.8125 159.068 31.8539 159.041 31.9336L158.674 33.0649L158.284 31.9272C158.257 31.8507 158.199 31.8125 158.116 31.8125H157.672C157.628 31.8125 157.599 31.8364 157.599 31.8746V31.8858C157.599 31.9766 157.742 32.0212 157.72 32.1662L157.511 33.5509C157.49 33.6959 157.389 33.7389 157.389 33.8313V33.8425C157.389 33.8807 157.418 33.9046 157.463 33.9046H157.857C157.901 33.9046 157.93 33.8807 157.93 33.8425V33.8313C157.93 33.7405 157.804 33.6959 157.823 33.5509L157.959 32.5869L158.457 33.8122C158.485 33.8744 158.525 33.9014 158.59 33.9014C158.655 33.9014 158.684 33.8712 158.705 33.8106L159.119 32.6474L159.277 33.5525C159.301 33.6943 159.17 33.7405 159.17 33.8329V33.8441C159.17 33.8823 159.199 33.9062 159.243 33.9062H159.927C159.971 33.9062 160 33.8823 160 33.8441V33.8329C160.001 33.7389 159.907 33.6943 159.88 33.5509Z" fill="white"/>
</svg>
