<svg width="192" height="96" viewBox="0 0 192 96" fill="none" xmlns="http://www.w3.org/2000/svg">
<path d="M79.4056 26.7984C80.4383 26.2155 81.4617 25.6138 82.4785 25C83.5045 25.6017 84.5266 26.2128 85.566 26.7903C85.6007 35.646 85.5727 44.5007 85.5807 53.3564C85.5221 54.2058 85.8619 55.1373 86.6507 55.5304C87.6835 56.0271 88.8655 55.8023 89.9675 55.8575C89.9915 57.8429 89.9768 59.8296 89.9742 61.8152C88.8895 61.8152 87.8048 61.8286 86.72 61.8017C85.8099 61.7882 84.9291 61.519 84.0682 61.2471C83.3713 60.9052 82.6797 60.535 82.072 60.045C81.0193 59.1243 80.2158 57.9021 79.8213 56.5505C79.4375 55.4064 79.3789 54.1841 79.3949 52.9874C79.4042 44.2568 79.3816 35.5276 79.4056 26.7984Z" fill="white"/>
<path d="M105.308 32.3418C108.532 32.1722 111.782 32.3041 114.96 32.8964C114.945 34.8765 114.949 36.8565 114.96 38.8365C113.995 38.7827 113.049 38.5592 112.083 38.5161C109.869 38.2846 107.639 38.224 105.415 38.3223C104.095 38.4596 102.687 38.504 101.537 39.2538C100.736 39.803 100.576 40.9162 100.801 41.8046C101.141 42.7253 102.063 43.1749 102.917 43.4858C104.867 44.1346 106.919 44.3662 108.898 44.91C110.825 45.4215 112.757 46.1134 114.341 47.3759C115.625 48.3774 116.438 49.912 116.709 51.5166C116.907 53.4886 116.811 55.5642 115.906 57.3613C115.108 58.9846 113.703 60.2755 112.044 60.9513C110.688 61.5476 109.195 61.7979 107.723 61.8141C104.529 61.8262 101.334 61.8154 98.1415 61.8181C97.5792 61.8074 97.0155 61.8558 96.4545 61.7966C95.7922 60.9055 95.2405 59.9363 94.6036 59.0264C94.465 58.8891 94.5263 58.6912 94.6355 58.5593C95.2685 57.6722 95.8375 56.7421 96.4625 55.8509C99.9697 55.8671 103.478 55.8536 106.987 55.8577C107.892 55.7944 108.85 55.7863 109.667 55.33C110.213 55.0245 110.613 54.4376 110.609 53.7942C110.694 53.0148 110.443 52.2004 109.879 51.6553C109.414 51.3336 108.929 51.0294 108.386 50.8624C107.145 50.4465 105.857 50.1813 104.57 49.9498C102.582 49.4989 100.575 49.0156 98.7453 48.0774C98.2522 47.7947 97.7232 47.5619 97.2901 47.185C96.4905 46.5267 95.715 45.7729 95.2926 44.8038C94.553 43.3554 94.4757 41.6769 94.5583 40.0804C94.6783 38.033 95.6404 36.0125 97.2861 34.7837C99.5914 33.062 102.516 32.5599 105.308 32.3418Z" fill="white"/>
<path d="M54.5589 33.9021C58.5741 32.3083 62.9833 32.0539 67.2397 32.4604C69.0453 32.6731 70.8575 32.8777 72.6205 33.3448C72.6258 42.8332 72.6125 52.323 72.6271 61.8114C70.5803 61.8276 68.5335 61.8168 66.4853 61.8155C66.4986 54.8161 66.4879 47.8163 66.4919 40.8166C66.4853 40.0466 66.5066 39.2766 66.4746 38.5067C64.661 38.2725 62.8275 38.2065 61.0018 38.3088C58.9283 38.5188 56.7921 39.0505 55.1359 40.3953C53.4316 41.7521 52.4868 43.906 52.3349 46.0676C52.2642 47.5819 52.2602 49.1407 52.7679 50.5877C53.0691 51.7022 53.7194 52.6808 54.4723 53.5356C54.5309 53.549 54.6522 53.576 54.7122 53.5881C54.7308 53.6527 54.7681 53.7806 54.7868 53.8438C55.4544 54.3338 56.17 54.7605 56.9282 55.0916C58.0875 55.5049 59.3188 55.7054 60.5487 55.6718C61.2216 56.6073 61.812 57.6007 62.4689 58.5484C62.6941 58.8014 62.3836 59.0572 62.2597 59.2726C61.7147 60.1192 61.115 60.9309 60.6193 61.8086C58.899 61.8463 57.1708 61.5959 55.5234 61.0952C52.741 60.235 50.1863 58.4798 48.5581 56.0165C47.1362 53.9745 46.3967 51.5165 46.1408 49.0478C46.1022 48.5632 46.1595 48.0692 46.0409 47.5927C45.9276 47.2602 46.0835 46.9264 46.1048 46.5939C46.1475 43.0646 47.3748 39.4394 49.9092 36.948C51.2178 35.6087 52.8502 34.6287 54.5585 33.9019L54.5589 33.9021Z" fill="white"/>
<path d="M130.067 33.4694C133.528 32.3454 137.219 32.1152 140.826 32.3912C142.888 32.5998 144.969 32.8125 146.975 33.3603C146.977 41.99 146.973 50.6197 146.977 59.2508C146.963 59.5873 147.021 59.9386 146.932 60.2684C145.905 60.8472 144.9 61.4718 143.871 62.0466C143.204 61.5687 142.447 61.2376 141.764 60.7826C141.622 60.6991 141.48 60.5686 141.305 60.5968C141.126 60.4124 140.8 60.2872 140.8 59.9938C140.805 52.8407 140.796 45.6876 140.806 38.5321C138.45 38.1902 136.034 38.1269 133.682 38.5456C131.601 38.9548 129.503 39.9078 128.224 41.686C126.792 43.5893 126.465 46.0985 126.653 48.4245C126.7 48.7651 126.658 49.1527 126.894 49.4327C126.879 49.4892 126.849 49.601 126.834 49.6575C127.179 51.2405 127.953 52.7871 129.239 53.7913C130.489 54.8264 132.08 55.3487 133.662 55.5613C134.363 55.7269 135.1 55.564 135.793 55.7592C135.758 57.7783 135.8 59.7975 135.773 61.8151C132.039 61.8636 128.168 60.8931 125.22 58.4809C123.794 57.3192 122.662 55.8157 121.842 54.1655C120.367 51.0238 120.114 47.4042 120.664 44.0041C121.024 42.2327 121.606 40.472 122.615 38.9658C124.325 36.2845 127.094 34.4175 130.067 33.4699L130.067 33.4694Z" fill="white"/>
</svg>
