<svg width="192" height="96" viewBox="0 0 192 96" fill="none" xmlns="http://www.w3.org/2000/svg">
<path d="M35.2956 22.0859C20.8169 22.0859 9.0791 33.6909 9.0791 48.0061C9.0791 62.3219 20.8169 73.9259 35.2956 73.9259C49.7758 73.9259 61.5124 62.3219 61.5124 48.0061C61.5124 33.6918 49.7758 22.0872 35.2953 22.0872L35.2956 22.0859ZM47.3183 59.4702C46.8487 60.2317 45.8407 60.4731 45.0706 60.0057C38.9152 56.2883 31.1664 55.4464 22.0407 57.5078C21.1613 57.7059 20.2847 57.1612 20.0844 56.2914C19.8831 55.4217 20.4319 54.555 21.3134 54.3569C31.3 52.1011 39.8663 53.0724 46.7767 57.2478C47.5469 57.7152 47.791 58.7088 47.3183 59.4702ZM50.5272 52.4125C49.9355 53.3633 48.677 53.6636 47.7159 53.0786C40.6689 48.796 29.927 47.5557 21.5918 50.0573C20.5108 50.3801 19.369 49.7778 19.041 48.7109C18.7154 47.6421 19.3249 46.5154 20.404 46.1904C29.9251 43.3341 41.7615 44.7177 49.8541 49.6345C50.8152 50.2195 51.1189 51.4635 50.5272 52.4125ZM50.8027 45.0631C42.3532 40.1012 28.4127 39.6449 20.3455 42.0657C19.05 42.4542 17.6801 41.7311 17.2875 40.4503C16.8949 39.1689 17.6256 37.8153 18.922 37.4259C28.1826 34.6464 43.5773 35.1834 53.3053 40.8932C54.473 41.577 54.8549 43.0648 54.163 44.2153C53.4743 45.3674 51.9654 45.7472 50.8039 45.0631H50.8027ZM80.4055 46.014C75.8787 44.9467 75.0741 44.1977 75.0741 42.6238C75.0741 41.1368 76.4892 40.1361 78.596 40.1361C80.6372 40.1361 82.6596 40.896 84.7821 42.4603C84.8447 42.5077 84.9261 42.5266 85.0044 42.5142C85.0858 42.5024 85.1546 42.4594 85.2016 42.3947L87.4118 39.3143C87.5026 39.1874 87.4775 39.0126 87.3554 38.9157C84.8291 36.9121 81.9865 35.9381 78.6618 35.9381C73.7749 35.9381 70.3595 38.838 70.3595 42.9872C70.3595 47.4366 73.3054 49.012 78.3957 50.2282C82.7253 51.2146 83.4579 52.041 83.4579 53.5181C83.4579 55.1555 81.9802 56.1738 79.601 56.1738C76.9588 56.1738 74.8018 55.2917 72.3912 53.2302C72.3317 53.1776 72.2503 53.1559 72.1752 53.159C72.0938 53.1652 72.0218 53.2024 71.9717 53.2612L69.4923 56.1769C69.389 56.3007 69.4015 56.4802 69.5205 56.5855C72.3255 59.0617 75.7754 60.3678 79.5008 60.3678C84.7664 60.3678 88.1694 57.5233 88.1694 53.1188C88.1788 49.4023 85.9279 47.344 80.4149 46.018L80.4055 46.014ZM100.084 41.6002C97.8022 41.6002 95.9301 42.4891 94.3836 44.3107V42.2604C94.3836 42.0985 94.2521 41.9667 94.0893 41.9667H90.0352C89.8724 41.9667 89.741 42.0985 89.741 42.2604V65.0417C89.741 65.2026 89.8724 65.3357 90.0352 65.3357H94.0893C94.2521 65.3357 94.3836 65.2026 94.3836 65.0417V57.8514C95.9301 59.5631 97.8022 60.4019 100.084 60.4019C104.326 60.4019 108.622 57.1736 108.622 51.002C108.628 44.8291 104.333 41.5999 100.088 41.5999L100.084 41.6002ZM103.907 51.002C103.907 54.1433 101.95 56.3378 99.1453 56.3378C96.3747 56.3378 94.2834 54.0443 94.2834 51.002C94.2834 47.9593 96.3747 45.6664 99.1453 45.6664C101.903 45.6661 103.907 47.9098 103.907 51.002ZM119.626 41.6002C114.163 41.6002 109.883 45.7589 109.883 51.0691C109.883 56.3224 114.135 60.4359 119.56 60.4359C125.041 60.4359 129.334 56.2914 129.334 51.002C129.334 45.7305 125.07 41.6008 119.626 41.6008V41.6002ZM119.626 56.3688C116.72 56.3688 114.529 54.0597 114.529 51.0004C114.529 47.9272 116.645 45.697 119.56 45.697C122.484 45.697 124.688 48.0052 124.688 51.0676C124.688 54.1402 122.559 56.3688 119.626 56.3688ZM140.998 41.9667H136.537V37.4581C136.537 37.2966 136.406 37.1647 136.243 37.1647H132.189C132.026 37.1647 131.891 37.2966 131.891 37.4581V41.9667H129.944C129.781 41.9667 129.65 42.0985 129.65 42.2604V45.7045C129.65 45.866 129.781 45.9982 129.944 45.9982H131.891V54.9109C131.891 58.5107 133.704 60.3369 137.282 60.3369C138.735 60.3369 139.94 60.0397 141.076 59.4021C141.17 59.3526 141.227 59.2536 141.227 59.1483V55.8674C141.227 55.7683 141.173 55.6724 141.086 55.6197C140.998 55.564 140.889 55.5609 140.798 55.6074C140.018 55.9943 139.264 56.1738 138.419 56.1738C137.119 56.1738 136.537 55.5888 136.537 54.2826V45.9997H140.998C141.161 45.9997 141.292 45.8679 141.292 45.706V42.2622C141.299 42.1004 141.167 41.9685 141.001 41.9685L140.998 41.9667ZM156.538 41.9843V41.4306C156.538 39.8015 157.171 39.0751 158.586 39.0751C159.431 39.0751 160.11 39.241 160.871 39.4917C160.965 39.5208 161.062 39.5062 161.137 39.4508C161.215 39.3954 161.259 39.3066 161.259 39.2125V35.8356C161.259 35.7065 161.178 35.5923 161.05 35.5542C160.248 35.3181 159.221 35.0757 157.681 35.0757C153.94 35.0757 151.958 37.1601 151.958 41.1012V41.9493H150.011C149.848 41.9493 149.714 42.0812 149.714 42.2427V45.7045C149.714 45.866 149.848 45.9982 150.011 45.9982H151.958V59.7426C151.958 59.9067 152.093 60.0367 152.256 60.0367H156.307C156.473 60.0367 156.604 59.9067 156.604 59.7426V45.9991H160.389L166.187 59.7426C165.529 61.185 164.881 61.4728 163.999 61.4728C163.285 61.4728 162.53 61.2624 161.763 60.8445C161.691 60.8074 161.604 60.8012 161.529 60.8228C161.45 60.8507 161.385 60.9064 161.353 60.9807L159.979 63.9614C159.913 64.1038 159.969 64.2678 160.107 64.3421C161.541 65.1097 162.834 65.4378 164.434 65.4378C167.427 65.4378 169.083 64.0574 170.538 60.3493L177.57 42.3854C177.607 42.2951 177.595 42.1929 177.538 42.1127C177.485 42.0332 177.394 41.9852 177.297 41.9852H173.077C172.949 41.9852 172.836 42.0648 172.796 42.1821L168.472 54.3878L163.739 42.174C163.695 42.0604 163.585 41.9852 163.463 41.9852H156.538V41.9843ZM147.529 41.9667H143.474C143.312 41.9667 143.177 42.0985 143.177 42.2604V59.7426C143.177 59.9067 143.312 60.0367 143.474 60.0367H147.529C147.691 60.0367 147.826 59.9067 147.826 59.7426V42.2616C147.826 42.0997 147.694 41.9679 147.529 41.9679V41.9667ZM145.525 34.006C143.919 34.006 142.617 35.2912 142.617 36.8787C142.617 38.4672 143.919 39.7539 145.525 39.7539C147.131 39.7539 148.43 38.4672 148.43 36.8787C148.43 35.2915 147.128 34.006 145.525 34.006ZM181.032 47.5879C179.429 47.5879 178.18 46.3142 178.18 44.7675C178.18 43.2208 179.445 41.9326 181.048 41.9326C182.651 41.9326 183.9 43.206 183.9 44.7514C183.9 46.2981 182.635 47.5879 181.032 47.5879ZM181.048 42.213C179.586 42.213 178.481 43.3614 178.481 44.7675C178.481 46.1731 179.58 47.3059 181.032 47.3059C182.494 47.3059 183.599 46.1585 183.599 44.7514C183.599 43.3459 182.5 42.213 181.048 42.213ZM181.68 45.0415L182.488 46.1582H181.805L181.079 45.1337H180.456V46.1582H179.886V43.1979H181.22C181.918 43.1979 182.375 43.5499 182.375 44.1423C182.378 44.6276 182.093 44.9242 181.683 45.0415H181.68ZM181.198 43.7059H180.456V44.6422H181.198C181.567 44.6422 181.79 44.463 181.79 44.1736C181.79 43.869 181.567 43.7059 181.198 43.7059Z" fill="white"/>
</svg>
